<svg xmlns="http://www.w3.org/2000/svg" xmlns:xlink="http://www.w3.org/1999/xlink" width="500" height="500" viewBox="0 0 500 500">
  <defs>
    <clipPath id="clip-Kevit_White_Logo">
      <rect width="500" height="500"/>
    </clipPath>
  </defs>
  <g id="Kevit_White_Logo" data-name="Kevit White Logo" clip-path="url(#clip-Kevit_White_Logo)">
    <g id="Kevit" transform="translate(8.002 42)">
      <path id="Subtraction_1" data-name="Subtraction 1" d="M133.812,416.97a120.8,120.8,0,0,1-23.1-2.185A111.039,111.039,0,0,1,90.5,408.806a112.861,112.861,0,0,1-17.479-8.914A123.8,123.8,0,0,1,58.1,388.9c-9.518-8.154-18.191-19.435-25.776-33.529-7.192-13.361-13.369-29.176-18.36-46.994A370.329,370.329,0,0,1,3.156,252.659,455.977,455.977,0,0,1,.039,192.948C.53,154.7,5.707,118.408,15.008,88a203.336,203.336,0,0,1,17.8-42.145c7.3-12.619,15.651-22.8,24.828-30.262A60.44,60.44,0,0,1,72.8,6.63a87.823,87.823,0,0,1,18.9-5.3L106.1.012C106.907,0,107.724,0,108.528,0A226.027,226.027,0,0,1,157.1,5.207a297.45,297.45,0,0,1,41.566,12.566c15.405,5.756,30.518,12.211,44.917,19.175,14.022,6.786,27.894,14.305,41.231,22.361l-6.037,6.024-8.9,8.882L136.143,207.663l7.98,8.066,6.3,6.366,59.14,59.781L241,281.712l3.952-.02,2.776-.014v-.133L178.307,212l-3.269-3.276-.929-.929c-.023-.065-.045-.132-.065-.2l99.321-99.072.093-.093L307.891,74.1c4.406,2.988,8.841,6.1,13.191,9.241,7.309,5.282,14.161,10.7,20.947,16.562,6.636,5.728,13.434,12.085,20.782,19.422A198.193,198.193,0,0,1,376.822,134.9a176.2,176.2,0,0,1,14.418,20.568c10.487,17.633,15.807,34.572,15.807,50.345a98.894,98.894,0,0,1-1.592,17.6,106.764,106.764,0,0,1-4.433,16.557,123.857,123.857,0,0,1-6.762,15.5,150.382,150.382,0,0,1-8.578,14.44C372.938,288.94,356.425,305,343.464,316.867c-13.792,12.627-25.367,22.611-36.425,31.422a376.065,376.065,0,0,1-36.879,26.178l-74.42-74.26-91.489-91.29-.065-.2,24.692-24.758,2.82-2.824,46.172-46.305-36.522-.315-1.64-.014-73.421,74.08,49.469,49.535.38.381L230.976,373.17l5.185,5.177,9.645,9.631A276.517,276.517,0,0,1,203.3,404.731a329.613,329.613,0,0,1-49.526,10.781A141.9,141.9,0,0,1,133.812,416.97ZM340.17,172.79,364.522,244.1l24.42-71.306h-11.12l-13.3,42.253L351.257,172.79Zm-104.887,0v69.486h10.292V209.9l27.639,32.375h13.067l-29.736-34.769,29.736-34.721H273.213l-27.637,32.422V172.787H235.283Zm59.914,0v69.486h32.342v-9.531H305.684V212.338H327.01v-9.473H305.684V182.4h21.855v-9.606H295.2Z" fill="#fff"/>
      <rect id="I" width="10.453" height="69.487" transform="translate(413.365 172.791)" fill="#fff"/>
      <path id="T" d="M13038.3,6331.83h43.058v9.614h-16.247v59.89h-10.583v-59.884H13038.3Z" transform="translate(-12597.725 -6159.039)" fill="#fff"/>
    </g>
  </g>
</svg>
